<svg version="1" xmlns="http://www.w3.org/2000/svg" width="346.667" height="346.667" viewBox="0 0 260.000000 260.000000"><path d="M25 77.5V130h14.3l-.7-39.8c-.4-21.8-1-40.8-1.3-42.2-1.7-7 2.7 2.8 17.8 40.3l16.5 41.2h10.7L99 88.3c9.1-22.7 16.9-41.5 17.2-41.9.4-.3.5 8.9.2 20.5-.2 11.6-.6 30.5-.8 42.1l-.5 21H129V25H111.3L94.5 67.5C85.3 90.9 77.4 110 77.1 110c-.3 0-8.2-19.1-17.4-42.5L42.8 25H25v52.5zM154 77.5V130h14V81h53v49h13V25h-13v45h-53V25h-14v52.5zM138.7 157.2c-4.3 10.9-30.7 78.9-30.7 79.3 0 .3 1.9.5 4.3.5h4.2l10.7-27.8c6-15.2 13-33.4 15.7-40.5l4.9-12.7h-4.3c-2.5 0-4.5.5-4.8 1.2zM78 183.9l-20.5 9.6v7.9l20.9 9.8c11.5 5.4 21 9.8 21.2 9.8.2 0 .4-2.4.4-5.3v-5.3l-11.7-4.7c-6.5-2.6-13.5-5.5-15.7-6.5l-3.9-1.7 15.7-6.5 15.6-6.4v-5.3c0-2.9-.3-5.3-.7-5.2-.5 0-10 4.4-21.3 9.8zM158.2 179.1l.3 5.3 15.9 6.3c8.8 3.5 16.1 6.5 16.3 6.6.1.2-7.2 3.2-16.2 6.7l-16.5 6.5v5.4c0 3.8.3 5.2 1.3 4.8.6-.3 10.5-4.7 22-9.8l20.7-9.2v-8.4l-21.1-9.4c-11.6-5.2-21.6-9.6-22.1-9.8-.5-.1-.8 2-.6 5z"/></svg>